<svg xmlns="http://www.w3.org/2000/svg" xmlns:xlink="http://www.w3.org/1999/xlink" version="1.1" id="Layer_1" x="0px" y="0px" width="395.845px" height="100.335px" viewBox="0 0 395.845 100.335" enable-background="new 0 0 395.845 100.335" xml:space="preserve" class="svg replaced-svg">
<g>
	<g>
		<g class="text-standish">
			<path d="M25.679,100.253C15.65,100.253,5.84,96.958,0,91.638l6.172-6.906c5.616,4.392,12.711,6.906,19.507,6.906   c9.169,0,13.818-2.867,13.818-8.52c0-6.166-7.251-7.865-14.928-9.666l-0.297-0.064c-10.405-2.401-22.203-5.124-22.203-18.4   c0-10.18,8.781-17.017,21.846-17.017c9.83,0,16.969,2.309,23.819,7.718l-5.371,7.279c-5.041-3.698-12.152-6.263-17.39-6.263   c-9.863,0-11.933,4.183-11.933,7.695c0,6.281,7.476,7.941,14.706,9.551l0.353,0.077c10.485,2.301,22.368,4.911,22.368,18.267   C50.467,95.534,37.663,100.253,25.679,100.253z"></path>
			<path d="M61.466,88.295V64.217H53.93v-8.028h7.537V44.206h10.076v11.983h11.217v8.028H71.542v21.541     c0,4.667,1.391,6.554,6.385,6.554c1.477,0,3.36-0.247,4.343-0.576v7.943c-1.064,0.248-4.833,0.574-7.373,0.574     C63.842,100.253,61.466,96.158,61.466,88.295z"></path>
			<path d="M116.594,99.679V94.11c-4.422,4.506-9.582,6.225-16.053,6.225c-7.044,0-12.286-3.93-12.286-11.139     c0-9.421,8.026-15.723,28.339-18.02v-1.311c0-4.34-2.297-6.223-7.125-6.223c-6.064,0-10.979,2.945-14.663,5.896l-4.911-6.307     c4.664-4.258,11.957-7.863,20.967-7.863c11.628,0,15.644,5.566,15.644,15.725v17.939v10.645H116.594z M116.594,87.557v-9.58     c-12.04,1.636-18.431,4.587-18.431,9.337c0,3.439,2.378,5.24,6.065,5.24C109.385,92.554,113.399,90.59,116.594,87.557z"></path>
			<path d="M137.321,56.188h10.157v5.896c2.784-2.947,8.027-6.715,15.889-6.715c7.618,0,12.532,4.502,12.532,13.104v31.205h-10.155     V71.013c0-4.832-2.05-7.043-6.472-7.043c-4.423,0-8.105,2.293-11.793,5.652v30.057h-10.157V56.188z"></path>
			<path d="M215.383,99.679v-5.895c-3.19,3.684-7.37,6.551-13.837,6.551c-9.913,0-17.204-7.208-17.204-22.279     c0-15.066,7.454-22.686,18.594-22.686c4.666,0,9.256,1.883,12.446,5.487V44.206h10.076v55.473H215.383z M215.383,86.575V69.13     c-2.7-3.521-6.633-5.406-10.239-5.406c-7.614,0-10.729,4.915-10.729,14.581c0,9.171,3.933,13.76,10.403,13.76     C208.995,92.064,213.009,89.441,215.383,86.575z"></path>
			<path d="M237.179,56.188h10.157v43.49h-10.157V56.188z"></path>
			<path d="M255.774,93.421l5.487-6.099c3.275,2.766,8.107,5.124,13.678,5.124c5.405,0,8.683-1.385,8.683-4.961     c0-3.5-4.422-4.555-9.663-5.776c-7.455-1.712-16.384-3.659-16.384-13.663c0-7.562,6.552-12.688,16.136-12.688     c8.273,0,13.352,2.357,17.854,6.102l-4.83,6.506c-3.194-2.603-8.354-4.718-12.286-4.718c-5.569,0-7.372,1.952-7.372,4.392     c0,3.496,4.342,4.555,9.504,5.692c7.45,1.628,16.54,3.498,16.54,13.582c0,9.109-8.271,13.339-18.181,13.339     C266.912,100.253,259.705,97.406,255.774,93.421z"></path>
			<path d="M301.891,44.206h10.157v17.879c2.785-2.947,8.026-6.715,15.889-6.715c7.618,0,12.534,4.502,12.534,13.104v31.205h-10.158     V71.013c0-4.832-2.048-7.043-6.47-7.043c-4.423,0-8.108,2.293-11.795,5.652v30.057h-10.157V44.206z"></path>
		</g>
		<g class="round-logo-standish">
			<path fill="#ED1C24" d="M378.982,29.745c2.836,2.099,2.836,6.111,0.364,8.585c-0.756,0.754-3.602,3.561-3.602,3.561l-0.013,0.008     c-0.104,0.098-0.241,0.157-0.393,0.157c-0.316,0-0.567-0.257-0.567-0.569c0,0,0.01-0.108,0.015-0.163     c0.345-2.48-1.229-4.663-2.124-5.262c-4.907-3.684-10.418-6.753-15.327-10.435c-2.839-2.103-2.836-6.113-0.364-8.581     c0.757-0.754,3.604-3.565,3.604-3.565l0.013-0.008c0.102-0.098,0.239-0.157,0.392-0.157c0.316,0,0.565,0.253,0.565,0.567     c0,0-0.008,0.108-0.014,0.165c-0.346,2.484,1.23,4.665,2.124,5.262C368.563,22.991,374.072,26.067,378.982,29.745z"></path>
			<g>
				<path fill="#ED1C24" d="M368.16,0c-15.293,0-27.688,12.395-27.688,27.687c0,15.29,12.396,27.684,27.688,27.684      c15.292,0,27.686-12.394,27.686-27.684C395.845,12.395,383.452,0,368.16,0z M368.16,48.273c-11.373,0-20.59-9.213-20.59-20.586      c0-11.371,9.217-20.588,20.59-20.588c11.371,0,20.59,9.217,20.59,20.588C388.75,39.06,379.531,48.273,368.16,48.273z"></path>
			</g>
		</g>
	</g>
	<circle class="text-standish" cx="242.257" cy="46.04" r="5.578"></circle>
</g>
</svg>